<?xml version="1.0" encoding="UTF-8"?>
<svg xmlns="http://www.w3.org/2000/svg" viewBox="0 0 752 862" role="img" aria-label="QR code 72H ECSS · CCQ Unité 8">
  <title>72H ECSS · CCQ Unité 8 — https://72h-ecss-unite8.pages.dev/</title>

  <!-- Fond blanc avec coins arrondis -->
  <rect x="0" y="0" width="752" height="862" rx="48" ry="48" fill="#FFFFFF"/>

  <!-- Cadre or extérieur -->
  <rect x="12" y="12" width="728" height="838" rx="40" ry="40"
        fill="none" stroke="#E8A020" stroke-width="6"/>

  <!-- Décor "8" en filigrane top-left -->
  <g opacity="0.06" transform="translate(40 40)">
    <path d="M30 6a17 17 0 1 0 0 34 17 17 0 1 1 0 34 17 17 0 1 1 0-34 17 17 0 1 0 0-34z"
          fill="none" stroke="#E8A020" stroke-width="4"/>
  </g>
  <g opacity="0.06" transform="translate(652 642)">
    <path d="M30 6a17 17 0 1 0 0 34 17 17 0 1 1 0 34 17 17 0 1 1 0-34 17 17 0 1 0 0-34z"
          fill="none" stroke="#E8A020" stroke-width="4"/>
  </g>

  <!-- QR code -->
  <g transform="translate(80 80)">
    <rect x="32" y="32" width="16" height="16" fill="#0A2342"/><rect x="48" y="32" width="16" height="16" fill="#0A2342"/><rect x="64" y="32" width="16" height="16" fill="#0A2342"/><rect x="80" y="32" width="16" height="16" fill="#0A2342"/><rect x="96" y="32" width="16" height="16" fill="#0A2342"/><rect x="112" y="32" width="16" height="16" fill="#0A2342"/><rect x="128" y="32" width="16" height="16" fill="#0A2342"/><rect x="192" y="32" width="16" height="16" fill="#0A2342"/><rect x="320" y="32" width="16" height="16" fill="#0A2342"/><rect x="400" y="32" width="16" height="16" fill="#0A2342"/><rect x="416" y="32" width="16" height="16" fill="#0A2342"/><rect x="448" y="32" width="16" height="16" fill="#0A2342"/><rect x="464" y="32" width="16" height="16" fill="#0A2342"/><rect x="480" y="32" width="16" height="16" fill="#0A2342"/><rect x="496" y="32" width="16" height="16" fill="#0A2342"/><rect x="512" y="32" width="16" height="16" fill="#0A2342"/><rect x="528" y="32" width="16" height="16" fill="#0A2342"/><rect x="544" y="32" width="16" height="16" fill="#0A2342"/><rect x="32" y="48" width="16" height="16" fill="#0A2342"/><rect x="128" y="48" width="16" height="16" fill="#0A2342"/><rect x="160" y="48" width="16" height="16" fill="#0A2342"/><rect x="208" y="48" width="16" height="16" fill="#0A2342"/><rect x="256" y="48" width="16" height="16" fill="#0A2342"/><rect x="272" y="48" width="16" height="16" fill="#0A2342"/><rect x="288" y="48" width="16" height="16" fill="#0A2342"/><rect x="304" y="48" width="16" height="16" fill="#0A2342"/><rect x="336" y="48" width="16" height="16" fill="#0A2342"/><rect x="352" y="48" width="16" height="16" fill="#0A2342"/><rect x="368" y="48" width="16" height="16" fill="#0A2342"/><rect x="416" y="48" width="16" height="16" fill="#0A2342"/><rect x="448" y="48" width="16" height="16" fill="#0A2342"/><rect x="544" y="48" width="16" height="16" fill="#0A2342"/><rect x="32" y="64" width="16" height="16" fill="#0A2342"/><rect x="64" y="64" width="16" height="16" fill="#0A2342"/><rect x="80" y="64" width="16" height="16" fill="#0A2342"/><rect x="96" y="64" width="16" height="16" fill="#0A2342"/><rect x="128" y="64" width="16" height="16" fill="#0A2342"/><rect x="176" y="64" width="16" height="16" fill="#0A2342"/><rect x="256" y="64" width="16" height="16" fill="#0A2342"/><rect x="320" y="64" width="16" height="16" fill="#0A2342"/><rect x="368" y="64" width="16" height="16" fill="#0A2342"/><rect x="448" y="64" width="16" height="16" fill="#0A2342"/><rect x="480" y="64" width="16" height="16" fill="#0A2342"/><rect x="496" y="64" width="16" height="16" fill="#0A2342"/><rect x="512" y="64" width="16" height="16" fill="#0A2342"/><rect x="544" y="64" width="16" height="16" fill="#0A2342"/><rect x="32" y="80" width="16" height="16" fill="#0A2342"/><rect x="64" y="80" width="16" height="16" fill="#0A2342"/><rect x="80" y="80" width="16" height="16" fill="#0A2342"/><rect x="96" y="80" width="16" height="16" fill="#0A2342"/><rect x="128" y="80" width="16" height="16" fill="#0A2342"/><rect x="192" y="80" width="16" height="16" fill="#0A2342"/><rect x="208" y="80" width="16" height="16" fill="#0A2342"/><rect x="224" y="80" width="16" height="16" fill="#0A2342"/><rect x="240" y="80" width="16" height="16" fill="#0A2342"/><rect x="256" y="80" width="16" height="16" fill="#0A2342"/><rect x="416" y="80" width="16" height="16" fill="#0A2342"/><rect x="448" y="80" width="16" height="16" fill="#0A2342"/><rect x="480" y="80" width="16" height="16" fill="#0A2342"/><rect x="496" y="80" width="16" height="16" fill="#0A2342"/><rect x="512" y="80" width="16" height="16" fill="#0A2342"/><rect x="544" y="80" width="16" height="16" fill="#0A2342"/><rect x="32" y="96" width="16" height="16" fill="#0A2342"/><rect x="64" y="96" width="16" height="16" fill="#0A2342"/><rect x="80" y="96" width="16" height="16" fill="#0A2342"/><rect x="96" y="96" width="16" height="16" fill="#0A2342"/><rect x="128" y="96" width="16" height="16" fill="#0A2342"/><rect x="176" y="96" width="16" height="16" fill="#0A2342"/><rect x="208" y="96" width="16" height="16" fill="#0A2342"/><rect x="224" y="96" width="16" height="16" fill="#0A2342"/><rect x="240" y="96" width="16" height="16" fill="#0A2342"/><rect x="272" y="96" width="16" height="16" fill="#0A2342"/><rect x="288" y="96" width="16" height="16" fill="#0A2342"/><rect x="304" y="96" width="16" height="16" fill="#0A2342"/><rect x="336" y="96" width="16" height="16" fill="#0A2342"/><rect x="368" y="96" width="16" height="16" fill="#0A2342"/><rect x="384" y="96" width="16" height="16" fill="#0A2342"/><rect x="400" y="96" width="16" height="16" fill="#0A2342"/><rect x="448" y="96" width="16" height="16" fill="#0A2342"/><rect x="480" y="96" width="16" height="16" fill="#0A2342"/><rect x="496" y="96" width="16" height="16" fill="#0A2342"/><rect x="512" y="96" width="16" height="16" fill="#0A2342"/><rect x="544" y="96" width="16" height="16" fill="#0A2342"/><rect x="32" y="112" width="16" height="16" fill="#0A2342"/><rect x="128" y="112" width="16" height="16" fill="#0A2342"/><rect x="160" y="112" width="16" height="16" fill="#0A2342"/><rect x="176" y="112" width="16" height="16" fill="#0A2342"/><rect x="208" y="112" width="16" height="16" fill="#0A2342"/><rect x="240" y="112" width="16" height="16" fill="#0A2342"/><rect x="256" y="112" width="16" height="16" fill="#0A2342"/><rect x="288" y="112" width="16" height="16" fill="#0A2342"/><rect x="304" y="112" width="16" height="16" fill="#0A2342"/><rect x="336" y="112" width="16" height="16" fill="#0A2342"/><rect x="352" y="112" width="16" height="16" fill="#0A2342"/><rect x="368" y="112" width="16" height="16" fill="#0A2342"/><rect x="384" y="112" width="16" height="16" fill="#0A2342"/><rect x="448" y="112" width="16" height="16" fill="#0A2342"/><rect x="544" y="112" width="16" height="16" fill="#0A2342"/><rect x="32" y="128" width="16" height="16" fill="#0A2342"/><rect x="48" y="128" width="16" height="16" fill="#0A2342"/><rect x="64" y="128" width="16" height="16" fill="#0A2342"/><rect x="80" y="128" width="16" height="16" fill="#0A2342"/><rect x="96" y="128" width="16" height="16" fill="#0A2342"/><rect x="112" y="128" width="16" height="16" fill="#0A2342"/><rect x="128" y="128" width="16" height="16" fill="#0A2342"/><rect x="160" y="128" width="16" height="16" fill="#0A2342"/><rect x="192" y="128" width="16" height="16" fill="#0A2342"/><rect x="224" y="128" width="16" height="16" fill="#0A2342"/><rect x="256" y="128" width="16" height="16" fill="#0A2342"/><rect x="288" y="128" width="16" height="16" fill="#0A2342"/><rect x="320" y="128" width="16" height="16" fill="#0A2342"/><rect x="352" y="128" width="16" height="16" fill="#0A2342"/><rect x="384" y="128" width="16" height="16" fill="#0A2342"/><rect x="416" y="128" width="16" height="16" fill="#0A2342"/><rect x="448" y="128" width="16" height="16" fill="#0A2342"/><rect x="464" y="128" width="16" height="16" fill="#0A2342"/><rect x="480" y="128" width="16" height="16" fill="#0A2342"/><rect x="496" y="128" width="16" height="16" fill="#0A2342"/><rect x="512" y="128" width="16" height="16" fill="#0A2342"/><rect x="528" y="128" width="16" height="16" fill="#0A2342"/><rect x="544" y="128" width="16" height="16" fill="#0A2342"/><rect x="160" y="144" width="16" height="16" fill="#0A2342"/><rect x="176" y="144" width="16" height="16" fill="#0A2342"/><rect x="208" y="144" width="16" height="16" fill="#0A2342"/><rect x="256" y="144" width="16" height="16" fill="#0A2342"/><rect x="272" y="144" width="16" height="16" fill="#0A2342"/><rect x="304" y="144" width="16" height="16" fill="#0A2342"/><rect x="368" y="144" width="16" height="16" fill="#0A2342"/><rect x="384" y="144" width="16" height="16" fill="#0A2342"/><rect x="400" y="144" width="16" height="16" fill="#0A2342"/><rect x="416" y="144" width="16" height="16" fill="#0A2342"/><rect x="96" y="160" width="16" height="16" fill="#0A2342"/><rect x="112" y="160" width="16" height="16" fill="#0A2342"/><rect x="128" y="160" width="16" height="16" fill="#0A2342"/><rect x="144" y="160" width="16" height="16" fill="#0A2342"/><rect x="192" y="160" width="16" height="16" fill="#0A2342"/><rect x="224" y="160" width="16" height="16" fill="#0A2342"/><rect x="256" y="160" width="16" height="16" fill="#0A2342"/><rect x="272" y="160" width="16" height="16" fill="#0A2342"/><rect x="336" y="160" width="16" height="16" fill="#0A2342"/><rect x="352" y="160" width="16" height="16" fill="#0A2342"/><rect x="368" y="160" width="16" height="16" fill="#0A2342"/><rect x="384" y="160" width="16" height="16" fill="#0A2342"/><rect x="416" y="160" width="16" height="16" fill="#0A2342"/><rect x="448" y="160" width="16" height="16" fill="#0A2342"/><rect x="464" y="160" width="16" height="16" fill="#0A2342"/><rect x="528" y="160" width="16" height="16" fill="#0A2342"/><rect x="32" y="176" width="16" height="16" fill="#0A2342"/><rect x="96" y="176" width="16" height="16" fill="#0A2342"/><rect x="176" y="176" width="16" height="16" fill="#0A2342"/><rect x="192" y="176" width="16" height="16" fill="#0A2342"/><rect x="256" y="176" width="16" height="16" fill="#0A2342"/><rect x="288" y="176" width="16" height="16" fill="#0A2342"/><rect x="320" y="176" width="16" height="16" fill="#0A2342"/><rect x="384" y="176" width="16" height="16" fill="#0A2342"/><rect x="400" y="176" width="16" height="16" fill="#0A2342"/><rect x="416" y="176" width="16" height="16" fill="#0A2342"/><rect x="464" y="176" width="16" height="16" fill="#0A2342"/><rect x="496" y="176" width="16" height="16" fill="#0A2342"/><rect x="512" y="176" width="16" height="16" fill="#0A2342"/><rect x="80" y="192" width="16" height="16" fill="#0A2342"/><rect x="112" y="192" width="16" height="16" fill="#0A2342"/><rect x="128" y="192" width="16" height="16" fill="#0A2342"/><rect x="144" y="192" width="16" height="16" fill="#0A2342"/><rect x="208" y="192" width="16" height="16" fill="#0A2342"/><rect x="224" y="192" width="16" height="16" fill="#0A2342"/><rect x="240" y="192" width="16" height="16" fill="#0A2342"/><rect x="304" y="192" width="16" height="16" fill="#0A2342"/><rect x="320" y="192" width="16" height="16" fill="#0A2342"/><rect x="400" y="192" width="16" height="16" fill="#0A2342"/><rect x="432" y="192" width="16" height="16" fill="#0A2342"/><rect x="448" y="192" width="16" height="16" fill="#0A2342"/><rect x="464" y="192" width="16" height="16" fill="#0A2342"/><rect x="480" y="192" width="16" height="16" fill="#0A2342"/><rect x="32" y="208" width="16" height="16" fill="#0A2342"/><rect x="64" y="208" width="16" height="16" fill="#0A2342"/><rect x="96" y="208" width="16" height="16" fill="#0A2342"/><rect x="144" y="208" width="16" height="16" fill="#0A2342"/><rect x="160" y="208" width="16" height="16" fill="#0A2342"/><rect x="176" y="208" width="16" height="16" fill="#0A2342"/><rect x="208" y="208" width="16" height="16" fill="#0A2342"/><rect x="240" y="208" width="16" height="16" fill="#0A2342"/><rect x="256" y="208" width="16" height="16" fill="#0A2342"/><rect x="272" y="208" width="16" height="16" fill="#0A2342"/><rect x="288" y="208" width="16" height="16" fill="#0A2342"/><rect x="304" y="208" width="16" height="16" fill="#0A2342"/><rect x="336" y="208" width="16" height="16" fill="#0A2342"/><rect x="352" y="208" width="16" height="16" fill="#0A2342"/><rect x="368" y="208" width="16" height="16" fill="#0A2342"/><rect x="384" y="208" width="16" height="16" fill="#0A2342"/><rect x="400" y="208" width="16" height="16" fill="#0A2342"/><rect x="432" y="208" width="16" height="16" fill="#0A2342"/><rect x="480" y="208" width="16" height="16" fill="#0A2342"/><rect x="528" y="208" width="16" height="16" fill="#0A2342"/><rect x="544" y="208" width="16" height="16" fill="#0A2342"/><rect x="128" y="224" width="16" height="16" fill="#0A2342"/><rect x="144" y="224" width="16" height="16" fill="#0A2342"/><rect x="224" y="224" width="16" height="16" fill="#0A2342"/><rect x="240" y="224" width="16" height="16" fill="#0A2342"/><rect x="256" y="224" width="16" height="16" fill="#0A2342"/><rect x="272" y="224" width="16" height="16" fill="#0A2342"/><rect x="304" y="224" width="16" height="16" fill="#0A2342"/><rect x="336" y="224" width="16" height="16" fill="#0A2342"/><rect x="352" y="224" width="16" height="16" fill="#0A2342"/><rect x="368" y="224" width="16" height="16" fill="#0A2342"/><rect x="400" y="224" width="16" height="16" fill="#0A2342"/><rect x="448" y="224" width="16" height="16" fill="#0A2342"/><rect x="480" y="224" width="16" height="16" fill="#0A2342"/><rect x="544" y="224" width="16" height="16" fill="#0A2342"/><rect x="48" y="240" width="16" height="16" fill="#0A2342"/><rect x="64" y="240" width="16" height="16" fill="#0A2342"/><rect x="112" y="240" width="16" height="16" fill="#0A2342"/><rect x="160" y="240" width="16" height="16" fill="#0A2342"/><rect x="176" y="240" width="16" height="16" fill="#0A2342"/><rect x="208" y="240" width="16" height="16" fill="#0A2342"/><rect x="224" y="240" width="16" height="16" fill="#0A2342"/><rect x="240" y="240" width="16" height="16" fill="#0A2342"/><rect x="256" y="240" width="16" height="16" fill="#0A2342"/><rect x="288" y="240" width="16" height="16" fill="#0A2342"/><rect x="320" y="240" width="16" height="16" fill="#0A2342"/><rect x="368" y="240" width="16" height="16" fill="#0A2342"/><rect x="400" y="240" width="16" height="16" fill="#0A2342"/><rect x="432" y="240" width="16" height="16" fill="#0A2342"/><rect x="496" y="240" width="16" height="16" fill="#0A2342"/><rect x="512" y="240" width="16" height="16" fill="#0A2342"/><rect x="528" y="240" width="16" height="16" fill="#0A2342"/><rect x="32" y="256" width="16" height="16" fill="#0A2342"/><rect x="48" y="256" width="16" height="16" fill="#0A2342"/><rect x="64" y="256" width="16" height="16" fill="#0A2342"/><rect x="80" y="256" width="16" height="16" fill="#0A2342"/><rect x="128" y="256" width="16" height="16" fill="#0A2342"/><rect x="208" y="256" width="16" height="16" fill="#0A2342"/><rect x="304" y="256" width="16" height="16" fill="#0A2342"/><rect x="320" y="256" width="16" height="16" fill="#0A2342"/><rect x="336" y="256" width="16" height="16" fill="#0A2342"/><rect x="352" y="256" width="16" height="16" fill="#0A2342"/><rect x="400" y="256" width="16" height="16" fill="#0A2342"/><rect x="416" y="256" width="16" height="16" fill="#0A2342"/><rect x="432" y="256" width="16" height="16" fill="#0A2342"/><rect x="512" y="256" width="16" height="16" fill="#0A2342"/><rect x="528" y="256" width="16" height="16" fill="#0A2342"/><rect x="64" y="272" width="16" height="16" fill="#0A2342"/><rect x="144" y="272" width="16" height="16" fill="#0A2342"/><rect x="208" y="272" width="16" height="16" fill="#0A2342"/><rect x="224" y="272" width="16" height="16" fill="#0A2342"/><rect x="240" y="272" width="16" height="16" fill="#0A2342"/><rect x="272" y="272" width="16" height="16" fill="#0A2342"/><rect x="288" y="272" width="16" height="16" fill="#0A2342"/><rect x="304" y="272" width="16" height="16" fill="#0A2342"/><rect x="336" y="272" width="16" height="16" fill="#0A2342"/><rect x="352" y="272" width="16" height="16" fill="#0A2342"/><rect x="368" y="272" width="16" height="16" fill="#0A2342"/><rect x="464" y="272" width="16" height="16" fill="#0A2342"/><rect x="480" y="272" width="16" height="16" fill="#0A2342"/><rect x="544" y="272" width="16" height="16" fill="#0A2342"/><rect x="48" y="288" width="16" height="16" fill="#0A2342"/><rect x="64" y="288" width="16" height="16" fill="#0A2342"/><rect x="80" y="288" width="16" height="16" fill="#0A2342"/><rect x="112" y="288" width="16" height="16" fill="#0A2342"/><rect x="128" y="288" width="16" height="16" fill="#0A2342"/><rect x="144" y="288" width="16" height="16" fill="#0A2342"/><rect x="192" y="288" width="16" height="16" fill="#0A2342"/><rect x="208" y="288" width="16" height="16" fill="#0A2342"/><rect x="224" y="288" width="16" height="16" fill="#0A2342"/><rect x="256" y="288" width="16" height="16" fill="#0A2342"/><rect x="272" y="288" width="16" height="16" fill="#0A2342"/><rect x="288" y="288" width="16" height="16" fill="#0A2342"/><rect x="304" y="288" width="16" height="16" fill="#0A2342"/><rect x="320" y="288" width="16" height="16" fill="#0A2342"/><rect x="352" y="288" width="16" height="16" fill="#0A2342"/><rect x="368" y="288" width="16" height="16" fill="#0A2342"/><rect x="448" y="288" width="16" height="16" fill="#0A2342"/><rect x="464" y="288" width="16" height="16" fill="#0A2342"/><rect x="480" y="288" width="16" height="16" fill="#0A2342"/><rect x="528" y="288" width="16" height="16" fill="#0A2342"/><rect x="544" y="288" width="16" height="16" fill="#0A2342"/><rect x="32" y="304" width="16" height="16" fill="#0A2342"/><rect x="48" y="304" width="16" height="16" fill="#0A2342"/><rect x="80" y="304" width="16" height="16" fill="#0A2342"/><rect x="96" y="304" width="16" height="16" fill="#0A2342"/><rect x="144" y="304" width="16" height="16" fill="#0A2342"/><rect x="208" y="304" width="16" height="16" fill="#0A2342"/><rect x="256" y="304" width="16" height="16" fill="#0A2342"/><rect x="272" y="304" width="16" height="16" fill="#0A2342"/><rect x="304" y="304" width="16" height="16" fill="#0A2342"/><rect x="320" y="304" width="16" height="16" fill="#0A2342"/><rect x="352" y="304" width="16" height="16" fill="#0A2342"/><rect x="400" y="304" width="16" height="16" fill="#0A2342"/><rect x="416" y="304" width="16" height="16" fill="#0A2342"/><rect x="432" y="304" width="16" height="16" fill="#0A2342"/><rect x="464" y="304" width="16" height="16" fill="#0A2342"/><rect x="528" y="304" width="16" height="16" fill="#0A2342"/><rect x="32" y="320" width="16" height="16" fill="#0A2342"/><rect x="48" y="320" width="16" height="16" fill="#0A2342"/><rect x="64" y="320" width="16" height="16" fill="#0A2342"/><rect x="80" y="320" width="16" height="16" fill="#0A2342"/><rect x="128" y="320" width="16" height="16" fill="#0A2342"/><rect x="160" y="320" width="16" height="16" fill="#0A2342"/><rect x="176" y="320" width="16" height="16" fill="#0A2342"/><rect x="192" y="320" width="16" height="16" fill="#0A2342"/><rect x="224" y="320" width="16" height="16" fill="#0A2342"/><rect x="240" y="320" width="16" height="16" fill="#0A2342"/><rect x="256" y="320" width="16" height="16" fill="#0A2342"/><rect x="320" y="320" width="16" height="16" fill="#0A2342"/><rect x="336" y="320" width="16" height="16" fill="#0A2342"/><rect x="352" y="320" width="16" height="16" fill="#0A2342"/><rect x="384" y="320" width="16" height="16" fill="#0A2342"/><rect x="400" y="320" width="16" height="16" fill="#0A2342"/><rect x="416" y="320" width="16" height="16" fill="#0A2342"/><rect x="432" y="320" width="16" height="16" fill="#0A2342"/><rect x="448" y="320" width="16" height="16" fill="#0A2342"/><rect x="480" y="320" width="16" height="16" fill="#0A2342"/><rect x="496" y="320" width="16" height="16" fill="#0A2342"/><rect x="528" y="320" width="16" height="16" fill="#0A2342"/><rect x="48" y="336" width="16" height="16" fill="#0A2342"/><rect x="64" y="336" width="16" height="16" fill="#0A2342"/><rect x="80" y="336" width="16" height="16" fill="#0A2342"/><rect x="112" y="336" width="16" height="16" fill="#0A2342"/><rect x="160" y="336" width="16" height="16" fill="#0A2342"/><rect x="176" y="336" width="16" height="16" fill="#0A2342"/><rect x="192" y="336" width="16" height="16" fill="#0A2342"/><rect x="208" y="336" width="16" height="16" fill="#0A2342"/><rect x="272" y="336" width="16" height="16" fill="#0A2342"/><rect x="288" y="336" width="16" height="16" fill="#0A2342"/><rect x="320" y="336" width="16" height="16" fill="#0A2342"/><rect x="368" y="336" width="16" height="16" fill="#0A2342"/><rect x="448" y="336" width="16" height="16" fill="#0A2342"/><rect x="464" y="336" width="16" height="16" fill="#0A2342"/><rect x="528" y="336" width="16" height="16" fill="#0A2342"/><rect x="32" y="352" width="16" height="16" fill="#0A2342"/><rect x="48" y="352" width="16" height="16" fill="#0A2342"/><rect x="64" y="352" width="16" height="16" fill="#0A2342"/><rect x="112" y="352" width="16" height="16" fill="#0A2342"/><rect x="128" y="352" width="16" height="16" fill="#0A2342"/><rect x="144" y="352" width="16" height="16" fill="#0A2342"/><rect x="160" y="352" width="16" height="16" fill="#0A2342"/><rect x="176" y="352" width="16" height="16" fill="#0A2342"/><rect x="192" y="352" width="16" height="16" fill="#0A2342"/><rect x="240" y="352" width="16" height="16" fill="#0A2342"/><rect x="256" y="352" width="16" height="16" fill="#0A2342"/><rect x="272" y="352" width="16" height="16" fill="#0A2342"/><rect x="288" y="352" width="16" height="16" fill="#0A2342"/><rect x="368" y="352" width="16" height="16" fill="#0A2342"/><rect x="416" y="352" width="16" height="16" fill="#0A2342"/><rect x="448" y="352" width="16" height="16" fill="#0A2342"/><rect x="480" y="352" width="16" height="16" fill="#0A2342"/><rect x="496" y="352" width="16" height="16" fill="#0A2342"/><rect x="528" y="352" width="16" height="16" fill="#0A2342"/><rect x="544" y="352" width="16" height="16" fill="#0A2342"/><rect x="32" y="368" width="16" height="16" fill="#0A2342"/><rect x="96" y="368" width="16" height="16" fill="#0A2342"/><rect x="144" y="368" width="16" height="16" fill="#0A2342"/><rect x="160" y="368" width="16" height="16" fill="#0A2342"/><rect x="192" y="368" width="16" height="16" fill="#0A2342"/><rect x="208" y="368" width="16" height="16" fill="#0A2342"/><rect x="224" y="368" width="16" height="16" fill="#0A2342"/><rect x="240" y="368" width="16" height="16" fill="#0A2342"/><rect x="320" y="368" width="16" height="16" fill="#0A2342"/><rect x="336" y="368" width="16" height="16" fill="#0A2342"/><rect x="400" y="368" width="16" height="16" fill="#0A2342"/><rect x="432" y="368" width="16" height="16" fill="#0A2342"/><rect x="512" y="368" width="16" height="16" fill="#0A2342"/><rect x="64" y="384" width="16" height="16" fill="#0A2342"/><rect x="96" y="384" width="16" height="16" fill="#0A2342"/><rect x="112" y="384" width="16" height="16" fill="#0A2342"/><rect x="128" y="384" width="16" height="16" fill="#0A2342"/><rect x="144" y="384" width="16" height="16" fill="#0A2342"/><rect x="160" y="384" width="16" height="16" fill="#0A2342"/><rect x="208" y="384" width="16" height="16" fill="#0A2342"/><rect x="224" y="384" width="16" height="16" fill="#0A2342"/><rect x="272" y="384" width="16" height="16" fill="#0A2342"/><rect x="288" y="384" width="16" height="16" fill="#0A2342"/><rect x="304" y="384" width="16" height="16" fill="#0A2342"/><rect x="320" y="384" width="16" height="16" fill="#0A2342"/><rect x="352" y="384" width="16" height="16" fill="#0A2342"/><rect x="368" y="384" width="16" height="16" fill="#0A2342"/><rect x="384" y="384" width="16" height="16" fill="#0A2342"/><rect x="400" y="384" width="16" height="16" fill="#0A2342"/><rect x="464" y="384" width="16" height="16" fill="#0A2342"/><rect x="480" y="384" width="16" height="16" fill="#0A2342"/><rect x="496" y="384" width="16" height="16" fill="#0A2342"/><rect x="512" y="384" width="16" height="16" fill="#0A2342"/><rect x="528" y="384" width="16" height="16" fill="#0A2342"/><rect x="64" y="400" width="16" height="16" fill="#0A2342"/><rect x="96" y="400" width="16" height="16" fill="#0A2342"/><rect x="176" y="400" width="16" height="16" fill="#0A2342"/><rect x="208" y="400" width="16" height="16" fill="#0A2342"/><rect x="224" y="400" width="16" height="16" fill="#0A2342"/><rect x="256" y="400" width="16" height="16" fill="#0A2342"/><rect x="304" y="400" width="16" height="16" fill="#0A2342"/><rect x="320" y="400" width="16" height="16" fill="#0A2342"/><rect x="336" y="400" width="16" height="16" fill="#0A2342"/><rect x="368" y="400" width="16" height="16" fill="#0A2342"/><rect x="384" y="400" width="16" height="16" fill="#0A2342"/><rect x="400" y="400" width="16" height="16" fill="#0A2342"/><rect x="416" y="400" width="16" height="16" fill="#0A2342"/><rect x="464" y="400" width="16" height="16" fill="#0A2342"/><rect x="528" y="400" width="16" height="16" fill="#0A2342"/><rect x="32" y="416" width="16" height="16" fill="#0A2342"/><rect x="48" y="416" width="16" height="16" fill="#0A2342"/><rect x="64" y="416" width="16" height="16" fill="#0A2342"/><rect x="80" y="416" width="16" height="16" fill="#0A2342"/><rect x="128" y="416" width="16" height="16" fill="#0A2342"/><rect x="144" y="416" width="16" height="16" fill="#0A2342"/><rect x="176" y="416" width="16" height="16" fill="#0A2342"/><rect x="192" y="416" width="16" height="16" fill="#0A2342"/><rect x="208" y="416" width="16" height="16" fill="#0A2342"/><rect x="240" y="416" width="16" height="16" fill="#0A2342"/><rect x="304" y="416" width="16" height="16" fill="#0A2342"/><rect x="320" y="416" width="16" height="16" fill="#0A2342"/><rect x="368" y="416" width="16" height="16" fill="#0A2342"/><rect x="384" y="416" width="16" height="16" fill="#0A2342"/><rect x="416" y="416" width="16" height="16" fill="#0A2342"/><rect x="432" y="416" width="16" height="16" fill="#0A2342"/><rect x="448" y="416" width="16" height="16" fill="#0A2342"/><rect x="464" y="416" width="16" height="16" fill="#0A2342"/><rect x="480" y="416" width="16" height="16" fill="#0A2342"/><rect x="160" y="432" width="16" height="16" fill="#0A2342"/><rect x="192" y="432" width="16" height="16" fill="#0A2342"/><rect x="240" y="432" width="16" height="16" fill="#0A2342"/><rect x="256" y="432" width="16" height="16" fill="#0A2342"/><rect x="320" y="432" width="16" height="16" fill="#0A2342"/><rect x="352" y="432" width="16" height="16" fill="#0A2342"/><rect x="368" y="432" width="16" height="16" fill="#0A2342"/><rect x="400" y="432" width="16" height="16" fill="#0A2342"/><rect x="416" y="432" width="16" height="16" fill="#0A2342"/><rect x="480" y="432" width="16" height="16" fill="#0A2342"/><rect x="496" y="432" width="16" height="16" fill="#0A2342"/><rect x="32" y="448" width="16" height="16" fill="#0A2342"/><rect x="48" y="448" width="16" height="16" fill="#0A2342"/><rect x="64" y="448" width="16" height="16" fill="#0A2342"/><rect x="80" y="448" width="16" height="16" fill="#0A2342"/><rect x="96" y="448" width="16" height="16" fill="#0A2342"/><rect x="112" y="448" width="16" height="16" fill="#0A2342"/><rect x="128" y="448" width="16" height="16" fill="#0A2342"/><rect x="160" y="448" width="16" height="16" fill="#0A2342"/><rect x="176" y="448" width="16" height="16" fill="#0A2342"/><rect x="192" y="448" width="16" height="16" fill="#0A2342"/><rect x="208" y="448" width="16" height="16" fill="#0A2342"/><rect x="256" y="448" width="16" height="16" fill="#0A2342"/><rect x="288" y="448" width="16" height="16" fill="#0A2342"/><rect x="352" y="448" width="16" height="16" fill="#0A2342"/><rect x="416" y="448" width="16" height="16" fill="#0A2342"/><rect x="448" y="448" width="16" height="16" fill="#0A2342"/><rect x="480" y="448" width="16" height="16" fill="#0A2342"/><rect x="496" y="448" width="16" height="16" fill="#0A2342"/><rect x="512" y="448" width="16" height="16" fill="#0A2342"/><rect x="32" y="464" width="16" height="16" fill="#0A2342"/><rect x="128" y="464" width="16" height="16" fill="#0A2342"/><rect x="160" y="464" width="16" height="16" fill="#0A2342"/><rect x="176" y="464" width="16" height="16" fill="#0A2342"/><rect x="240" y="464" width="16" height="16" fill="#0A2342"/><rect x="256" y="464" width="16" height="16" fill="#0A2342"/><rect x="320" y="464" width="16" height="16" fill="#0A2342"/><rect x="336" y="464" width="16" height="16" fill="#0A2342"/><rect x="368" y="464" width="16" height="16" fill="#0A2342"/><rect x="400" y="464" width="16" height="16" fill="#0A2342"/><rect x="416" y="464" width="16" height="16" fill="#0A2342"/><rect x="480" y="464" width="16" height="16" fill="#0A2342"/><rect x="528" y="464" width="16" height="16" fill="#0A2342"/><rect x="544" y="464" width="16" height="16" fill="#0A2342"/><rect x="32" y="480" width="16" height="16" fill="#0A2342"/><rect x="64" y="480" width="16" height="16" fill="#0A2342"/><rect x="80" y="480" width="16" height="16" fill="#0A2342"/><rect x="96" y="480" width="16" height="16" fill="#0A2342"/><rect x="128" y="480" width="16" height="16" fill="#0A2342"/><rect x="160" y="480" width="16" height="16" fill="#0A2342"/><rect x="224" y="480" width="16" height="16" fill="#0A2342"/><rect x="240" y="480" width="16" height="16" fill="#0A2342"/><rect x="272" y="480" width="16" height="16" fill="#0A2342"/><rect x="304" y="480" width="16" height="16" fill="#0A2342"/><rect x="320" y="480" width="16" height="16" fill="#0A2342"/><rect x="336" y="480" width="16" height="16" fill="#0A2342"/><rect x="416" y="480" width="16" height="16" fill="#0A2342"/><rect x="432" y="480" width="16" height="16" fill="#0A2342"/><rect x="448" y="480" width="16" height="16" fill="#0A2342"/><rect x="464" y="480" width="16" height="16" fill="#0A2342"/><rect x="480" y="480" width="16" height="16" fill="#0A2342"/><rect x="32" y="496" width="16" height="16" fill="#0A2342"/><rect x="64" y="496" width="16" height="16" fill="#0A2342"/><rect x="80" y="496" width="16" height="16" fill="#0A2342"/><rect x="96" y="496" width="16" height="16" fill="#0A2342"/><rect x="128" y="496" width="16" height="16" fill="#0A2342"/><rect x="176" y="496" width="16" height="16" fill="#0A2342"/><rect x="240" y="496" width="16" height="16" fill="#0A2342"/><rect x="256" y="496" width="16" height="16" fill="#0A2342"/><rect x="288" y="496" width="16" height="16" fill="#0A2342"/><rect x="400" y="496" width="16" height="16" fill="#0A2342"/><rect x="416" y="496" width="16" height="16" fill="#0A2342"/><rect x="448" y="496" width="16" height="16" fill="#0A2342"/><rect x="464" y="496" width="16" height="16" fill="#0A2342"/><rect x="480" y="496" width="16" height="16" fill="#0A2342"/><rect x="496" y="496" width="16" height="16" fill="#0A2342"/><rect x="512" y="496" width="16" height="16" fill="#0A2342"/><rect x="528" y="496" width="16" height="16" fill="#0A2342"/><rect x="32" y="512" width="16" height="16" fill="#0A2342"/><rect x="64" y="512" width="16" height="16" fill="#0A2342"/><rect x="80" y="512" width="16" height="16" fill="#0A2342"/><rect x="96" y="512" width="16" height="16" fill="#0A2342"/><rect x="128" y="512" width="16" height="16" fill="#0A2342"/><rect x="288" y="512" width="16" height="16" fill="#0A2342"/><rect x="320" y="512" width="16" height="16" fill="#0A2342"/><rect x="336" y="512" width="16" height="16" fill="#0A2342"/><rect x="432" y="512" width="16" height="16" fill="#0A2342"/><rect x="448" y="512" width="16" height="16" fill="#0A2342"/><rect x="480" y="512" width="16" height="16" fill="#0A2342"/><rect x="32" y="528" width="16" height="16" fill="#0A2342"/><rect x="128" y="528" width="16" height="16" fill="#0A2342"/><rect x="192" y="528" width="16" height="16" fill="#0A2342"/><rect x="240" y="528" width="16" height="16" fill="#0A2342"/><rect x="256" y="528" width="16" height="16" fill="#0A2342"/><rect x="288" y="528" width="16" height="16" fill="#0A2342"/><rect x="304" y="528" width="16" height="16" fill="#0A2342"/><rect x="336" y="528" width="16" height="16" fill="#0A2342"/><rect x="368" y="528" width="16" height="16" fill="#0A2342"/><rect x="384" y="528" width="16" height="16" fill="#0A2342"/><rect x="400" y="528" width="16" height="16" fill="#0A2342"/><rect x="416" y="528" width="16" height="16" fill="#0A2342"/><rect x="432" y="528" width="16" height="16" fill="#0A2342"/><rect x="464" y="528" width="16" height="16" fill="#0A2342"/><rect x="480" y="528" width="16" height="16" fill="#0A2342"/><rect x="32" y="544" width="16" height="16" fill="#0A2342"/><rect x="48" y="544" width="16" height="16" fill="#0A2342"/><rect x="64" y="544" width="16" height="16" fill="#0A2342"/><rect x="80" y="544" width="16" height="16" fill="#0A2342"/><rect x="96" y="544" width="16" height="16" fill="#0A2342"/><rect x="112" y="544" width="16" height="16" fill="#0A2342"/><rect x="128" y="544" width="16" height="16" fill="#0A2342"/><rect x="176" y="544" width="16" height="16" fill="#0A2342"/><rect x="272" y="544" width="16" height="16" fill="#0A2342"/><rect x="320" y="544" width="16" height="16" fill="#0A2342"/><rect x="352" y="544" width="16" height="16" fill="#0A2342"/><rect x="368" y="544" width="16" height="16" fill="#0A2342"/><rect x="384" y="544" width="16" height="16" fill="#0A2342"/><rect x="400" y="544" width="16" height="16" fill="#0A2342"/><rect x="416" y="544" width="16" height="16" fill="#0A2342"/><rect x="448" y="544" width="16" height="16" fill="#0A2342"/><rect x="464" y="544" width="16" height="16" fill="#0A2342"/><rect x="496" y="544" width="16" height="16" fill="#0A2342"/><rect x="544" y="544" width="16" height="16" fill="#0A2342"/>
  </g>

  <!-- Cercle blanc + 8 doré au centre -->
  <g transform="translate(376 376)">
    <circle r="68.08" fill="#FFFFFF"/>
    <circle r="62.160000000000004" fill="#0A2342"/>
    <g transform="translate(-35.52 -59.2)">
      <path d="M35.52 3.552
               a24.864 24.864 0 1 0 0 49.728
               a24.864 24.864 0 1 1 0 49.728
               a24.864 24.864 0 1 1 0 -49.728
               a24.864 24.864 0 1 0 0 -49.728z"
            fill="none" stroke="#E8A020" stroke-width="9.472000000000001" stroke-linecap="round"/>
    </g>
  </g>

  <!-- Label en bas -->
  <g transform="translate(376 762)">
    <text text-anchor="middle" y="36"
          font-family="-apple-system, BlinkMacSystemFont, 'Segoe UI', Roboto, sans-serif"
          font-size="42" font-weight="900" fill="#0A2342" letter-spacing="-1">
      72H ECSS · Unité 8
    </text>
    <text text-anchor="middle" y="72"
          font-family="-apple-system, BlinkMacSystemFont, 'Segoe UI', Roboto, sans-serif"
          font-size="22" font-weight="600" fill="#E8A020" letter-spacing="3">
      7 · 8 · 9 AOÛT 2026
    </text>
  </g>
</svg>
